<?xml version="1.0" standalone="no"?><!DOCTYPE svg PUBLIC "-//W3C//DTD SVG 1.1//EN" "http://www.w3.org/Graphics/SVG/1.1/DTD/svg11.dtd"><svg t="1715626011793" class="icon" viewBox="0 0 1024 1024" version="1.1" xmlns="http://www.w3.org/2000/svg" p-id="11814" xmlns:xlink="http://www.w3.org/1999/xlink" width="32" height="32"><path d="M604.376 359.919h168.143v73.105H604.376z m0 119.893h168.143v76.03H604.376z" fill="#fcfcfc" p-id="11815"></path><path d="M730.95 179.373a29027.746 29027.746 0 0 0-446.367 0.141c-134.61 1.074-252.679 112.78-263.829 247.152l0.065 24.726 0.62 392.222c52.833-30.423 100.754-68.132 151.042-102.321 12.24-8.322 24.05-11.893 38.747-11.866 173.589 0.318 347.185 0.94 520.767-0.269 148.249-1.033 270.645-126.745 270.595-275.428-0.051-148.353-122.712-273.255-271.64-274.357zM440.621 510.516c-25.358 36.072-57.022 76.532-95.037 121.355l-46.787-26.318c25.336-25.336 49.712-55.058 73.105-89.189H180.366v-46.787h260.255v40.939zM266.63 405.245l39.477-26.318c2.924 3.906 7.79 9.275 14.621 16.083 9.732 10.737 21.429 24.856 35.091 42.401l-42.401 27.78c-19.51-26.318-35.091-46.285-46.788-59.946z m190.074 48.249c-58.484-27.277-105.272-65.795-140.362-115.506-37.055 46.787-85.784 86.264-146.21 118.43-12.679-19.487-23.393-34.108-32.166-43.863 61.408-26.318 112.582-67.257 153.521-122.817h68.719l-11.697 11.697c33.126 45.827 79.433 82.38 138.9 109.658a4278.488 4278.488 0 0 1-30.705 42.401z m369.913 173.991h-54.098v-24.856H604.376v24.856h-52.635V310.208h274.876v317.277z" fill="#fcfcfc" p-id="11816"></path></svg>